<?xml version="1.0" encoding="UTF-8" standalone="no"?>
<!-- Created with Inkscape (http://www.inkscape.org/) -->

<svg
   width="1920"
   height="1080"
   viewBox="0 0 507.99999 285.75"
   version="1.1"
   id="svg1"
   xml:space="preserve"
   inkscape:version="1.3.1 (91b66b0783, 2023-11-16)"
   sodipodi:docname="mainbgt.svg"
   xmlns:inkscape="http://www.inkscape.org/namespaces/inkscape"
   xmlns:sodipodi="http://sodipodi.sourceforge.net/DTD/sodipodi-0.dtd"
   xmlns:xlink="http://www.w3.org/1999/xlink"
   xmlns="http://www.w3.org/2000/svg"
   xmlns:svg="http://www.w3.org/2000/svg"><sodipodi:namedview
     id="namedview1"
     pagecolor="#ffffff"
     bordercolor="#000000"
     borderopacity="0.25"
     inkscape:showpageshadow="2"
     inkscape:pageopacity="0.0"
     inkscape:pagecheckerboard="0"
     inkscape:deskcolor="#d1d1d1"
     inkscape:document-units="mm"
     inkscape:zoom="0.36213173"
     inkscape:cx="1187.4132"
     inkscape:cy="688.9758"
     inkscape:window-width="1920"
     inkscape:window-height="1009"
     inkscape:window-x="-8"
     inkscape:window-y="-8"
     inkscape:window-maximized="1"
     inkscape:current-layer="layer1" /><defs
     id="defs1"><linearGradient
       id="linearGradient19"
       inkscape:collect="always"><stop
         style="stop-color:#a0153e;stop-opacity:1;"
         offset="0"
         id="stop18" /><stop
         style="stop-color:#00224d;stop-opacity:1;"
         offset="1"
         id="stop19" /></linearGradient><linearGradient
       id="linearGradient17"
       inkscape:collect="always"><stop
         style="stop-color:#00224d;stop-opacity:1;"
         offset="0"
         id="stop16" /><stop
         style="stop-color:#a0153e;stop-opacity:1;"
         offset="1"
         id="stop17" /></linearGradient><linearGradient
       id="linearGradient14"
       inkscape:collect="always"><stop
         style="stop-color:#a0153e;stop-opacity:1;"
         offset="0"
         id="stop14" /><stop
         style="stop-color:#00224d;stop-opacity:1;"
         offset="1"
         id="stop15" /></linearGradient><linearGradient
       id="linearGradient12"
       inkscape:collect="always"><stop
         style="stop-color:#5d0e41;stop-opacity:1;"
         offset="0"
         id="stop12" /><stop
         style="stop-color:#ff204e;stop-opacity:1;"
         offset="1"
         id="stop13" /></linearGradient><linearGradient
       id="linearGradient10"
       inkscape:collect="always"><stop
         style="stop-color:#00224d;stop-opacity:1;"
         offset="0"
         id="stop10" /><stop
         style="stop-color:#ff204e;stop-opacity:1;"
         offset="1"
         id="stop11" /></linearGradient><linearGradient
       id="linearGradient2"
       inkscape:collect="always"><stop
         style="stop-color:#5d0e41;stop-opacity:1;"
         offset="0"
         id="stop3" /><stop
         style="stop-color:#a0153e;stop-opacity:1;"
         offset="1"
         id="stop4" /></linearGradient><linearGradient
       id="sw-gradient"
       x1="2.4470682"
       x2="22.808887"
       y1="24.263303"
       y2="3.9014837"
       gradientTransform="matrix(1.7447484,0,0,1.6258162,121.49928,173.50456)"
       gradientUnits="userSpaceOnUse"><stop
         id="stop1"
         stop-color="rgba(248, 117, 55, 1)"
         offset="0%"
         style="--darkreader-inline-stopcolor: #a93a06;"
         data-darkreader-inline-stopcolor="" /><stop
         id="stop2"
         stop-color="rgba(251, 168, 31, 1)"
         offset="100%"
         style="--darkreader-inline-stopcolor: #b97403;"
         data-darkreader-inline-stopcolor="" /></linearGradient><linearGradient
       id="sw-gradient-0"
       x1="4.3554303"
       x2="22.824564"
       y1="20.592734"
       y2="2.1236"
       gradientTransform="matrix(1.5670996,0,0,1.5682782,26.552156,39.754653)"
       gradientUnits="userSpaceOnUse"><stop
         id="stop1-3"
         stop-color="rgba(248, 117, 55, 1)"
         offset="0%"
         style="--darkreader-inline-stopcolor: #a93a06;"
         data-darkreader-inline-stopcolor="" /><stop
         id="stop2-2"
         stop-color="rgba(251, 168, 31, 1)"
         offset="100%"
         style="--darkreader-inline-stopcolor: #b97403;"
         data-darkreader-inline-stopcolor="" /></linearGradient><linearGradient
       id="sw-gradient-9"
       x1="3.2768168"
       x2="20.078572"
       y1="21.381464"
       y2="4.5797086"
       gradientTransform="matrix(1.8010182,0,0,1.5131485,481.12114,281.03398)"
       gradientUnits="userSpaceOnUse"><stop
         id="stop1-8"
         stop-color="rgba(248, 117, 55, 1)"
         offset="0%"
         style="--darkreader-inline-stopcolor: #a93a06;"
         data-darkreader-inline-stopcolor="" /><stop
         id="stop2-7"
         stop-color="rgba(251, 168, 31, 1)"
         offset="100%"
         style="--darkreader-inline-stopcolor: #b97403;"
         data-darkreader-inline-stopcolor="" /></linearGradient><linearGradient
       id="sw-gradient-2"
       x1="7.5228536"
       x2="21.786116"
       y1="21.444564"
       y2="7.1813014"
       gradientTransform="matrix(1.8150179,0,0,1.7432627,389.10199,142.15211)"
       gradientUnits="userSpaceOnUse"><stop
         id="stop1-89"
         stop-color="rgba(248, 117, 55, 1)"
         offset="0%"
         style="--darkreader-inline-stopcolor: #a93a06;"
         data-darkreader-inline-stopcolor="" /><stop
         id="stop2-6"
         stop-color="rgba(251, 168, 31, 1)"
         offset="100%"
         style="--darkreader-inline-stopcolor: #b97403;"
         data-darkreader-inline-stopcolor="" /></linearGradient><linearGradient
       id="sw-gradient-22"
       x1="4.6903698"
       x2="19.313368"
       y1="18.090954"
       y2="3.4679557"
       gradientTransform="matrix(1.8415411,0,0,1.7982252,347.13403,39.506001)"
       gradientUnits="userSpaceOnUse"><stop
         id="stop1-7"
         stop-color="rgba(248, 117, 55, 1)"
         offset="0%"
         style="--darkreader-inline-stopcolor: #a93a06;"
         data-darkreader-inline-stopcolor="" /><stop
         id="stop2-61"
         stop-color="rgba(251, 168, 31, 1)"
         offset="100%"
         style="--darkreader-inline-stopcolor: #b97403;"
         data-darkreader-inline-stopcolor="" /></linearGradient><linearGradient
       id="sw-gradient-8"
       x1="5.3700078"
       x2="22.400223"
       y1="19.968071"
       y2="2.9378558"
       gradientTransform="matrix(1.0700019,0,0,1.1084053,273.97829,270.32803)"
       gradientUnits="userSpaceOnUse"><stop
         id="stop1-4"
         stop-color="rgba(248, 117, 55, 1)"
         offset="0%"
         style="--darkreader-inline-stopcolor: #a93a06;"
         data-darkreader-inline-stopcolor="" /><stop
         id="stop2-4"
         stop-color="rgba(251, 168, 31, 1)"
         offset="100%"
         style="--darkreader-inline-stopcolor: #b97403;"
         data-darkreader-inline-stopcolor="" /></linearGradient><linearGradient
       inkscape:collect="always"
       xlink:href="#linearGradient17"
       id="linearGradient4"
       x1="82.64949"
       y1="213.08867"
       x2="180.39058"
       y2="150.25471"
       gradientUnits="userSpaceOnUse" /><linearGradient
       inkscape:collect="always"
       xlink:href="#linearGradient19"
       id="linearGradient6"
       x1="513.67505"
       y1="300.49258"
       x2="449.77155"
       y2="245.69556"
       gradientUnits="userSpaceOnUse" /><linearGradient
       inkscape:collect="always"
       xlink:href="#linearGradient2"
       id="linearGradient8"
       x1="312.17206"
       y1="37.122917"
       x2="387.64783"
       y2="-4.52284"
       gradientUnits="userSpaceOnUse" /><linearGradient
       inkscape:collect="always"
       xlink:href="#linearGradient10"
       id="linearGradient11"
       x1="14.879604"
       y1="67.417305"
       x2="33.672585"
       y2="2.3914764"
       gradientUnits="userSpaceOnUse" /><linearGradient
       inkscape:collect="always"
       xlink:href="#linearGradient12"
       id="linearGradient13"
       x1="370.03485"
       y1="132.90443"
       x2="423.31125"
       y2="176.74208"
       gradientUnits="userSpaceOnUse" /><linearGradient
       inkscape:collect="always"
       xlink:href="#linearGradient14"
       id="linearGradient15"
       x1="244.16597"
       y1="254.35747"
       x2="310.84598"
       y2="271.1619"
       gradientUnits="userSpaceOnUse" /><filter
       style="color-interpolation-filters:sRGB;"
       inkscape:label="Blur"
       id="filter579"
       x="-0.15870332"
       y="-0.15322326"
       width="1.3174643"
       height="1.3065853"><feGaussianBlur
         stdDeviation="2 2"
         result="fbSourceGraphic"
         id="feGaussianBlur579" /><feColorMatrix
         result="fbSourceGraphicAlpha"
         in="fbSourceGraphic"
         values="0 0 0 -1 0 0 0 0 -1 0 0 0 0 -1 0 0 0 0 1 0"
         id="feColorMatrix584" /><feGaussianBlur
         id="feGaussianBlur585"
         stdDeviation="2 2"
         result="blur"
         in="fbSourceGraphic" /></filter><filter
       style="color-interpolation-filters:sRGB;"
       inkscape:label="Blur"
       id="filter580"
       x="-0.094322609"
       y="-0.096594691"
       width="1.1886452"
       height="1.1931894"><feGaussianBlur
         stdDeviation="2 2"
         result="fbSourceGraphic"
         id="feGaussianBlur580" /><feColorMatrix
         result="fbSourceGraphicAlpha"
         in="fbSourceGraphic"
         values="0 0 0 -1 0 0 0 0 -1 0 0 0 0 -1 0 0 0 0 1 0"
         id="feColorMatrix585" /><feGaussianBlur
         id="feGaussianBlur586"
         stdDeviation="2 2"
         result="blur"
         in="fbSourceGraphic" /></filter><filter
       style="color-interpolation-filters:sRGB;"
       inkscape:label="Blur"
       id="filter581"
       x="-0.11171963"
       y="-0.11623032"
       width="1.223373"
       height="1.2326241"><feGaussianBlur
         stdDeviation="2 2"
         result="fbSourceGraphic"
         id="feGaussianBlur581" /><feColorMatrix
         result="fbSourceGraphicAlpha"
         in="fbSourceGraphic"
         values="0 0 0 -1 0 0 0 0 -1 0 0 0 0 -1 0 0 0 0 1 0"
         id="feColorMatrix586" /><feGaussianBlur
         id="feGaussianBlur587"
         stdDeviation="2 2"
         result="blur"
         in="fbSourceGraphic" /></filter><filter
       style="color-interpolation-filters:sRGB;"
       inkscape:label="Blur"
       id="filter582"
       x="-0.08393842"
       y="-0.099907349"
       width="1.1678768"
       height="1.1998147"><feGaussianBlur
         stdDeviation="2 2"
         result="fbSourceGraphic"
         id="feGaussianBlur582" /><feColorMatrix
         result="fbSourceGraphicAlpha"
         in="fbSourceGraphic"
         values="0 0 0 -1 0 0 0 0 -1 0 0 0 0 -1 0 0 0 0 1 0"
         id="feColorMatrix587" /><feGaussianBlur
         id="feGaussianBlur588"
         stdDeviation="2 2"
         result="blur"
         in="fbSourceGraphic" /></filter><filter
       style="color-interpolation-filters:sRGB;"
       inkscape:label="Blur"
       id="filter583"
       x="-0.10017435"
       y="-0.099800336"
       width="1.2000804"
       height="1.19957"><feGaussianBlur
         stdDeviation="2 2"
         result="fbSourceGraphic"
         id="feGaussianBlur583" /><feColorMatrix
         result="fbSourceGraphicAlpha"
         in="fbSourceGraphic"
         values="0 0 0 -1 0 0 0 0 -1 0 0 0 0 -1 0 0 0 0 1 0"
         id="feColorMatrix588" /><feGaussianBlur
         id="feGaussianBlur589"
         stdDeviation="2 2"
         result="blur"
         in="fbSourceGraphic" /></filter><filter
       style="color-interpolation-filters:sRGB;"
       inkscape:label="Blur"
       id="filter584"
       x="-0.071496426"
       y="-0.076726539"
       width="1.1429929"
       height="1.1534531"><feGaussianBlur
         stdDeviation="2 2"
         result="fbSourceGraphic"
         id="feGaussianBlur584" /><feColorMatrix
         result="fbSourceGraphicAlpha"
         in="fbSourceGraphic"
         values="0 0 0 -1 0 0 0 0 -1 0 0 0 0 -1 0 0 0 0 1 0"
         id="feColorMatrix589" /><feGaussianBlur
         id="feGaussianBlur590"
         stdDeviation="2 2"
         result="blur"
         in="fbSourceGraphic" /></filter></defs><g
     inkscape:label="Layer 1"
     inkscape:groupmode="layer"
     id="layer1"><path
       fill="url(#sw-gradient)"
       d="m 145.75224,136.78835 c 10.9475,6.06323 26.44245,6.23163 34.52677,13.13702 8.08432,6.73692 8.92643,20.04234 5.55797,31.83195 -3.36847,11.62125 -10.77909,21.5582 -18.35814,33.01097 -7.57905,11.4528 -15.32653,24.42139 -24.5898,23.57926 -9.43171,-1.01054 -20.37922,-15.66334 -32.33728,-21.895 -11.958044,-6.06323 -24.758217,-3.53693 -36.210999,-7.2422 -11.452782,-3.87373 -21.558181,-14.14756 -20.884486,-24.58984 0.673691,-10.27383 12.126478,-20.88447 19.368677,-32.00039 7.2422,-10.94752 10.273822,-22.56873 17.684447,-30.31621 7.410622,-7.57905 19.200251,-11.45281 28.463531,-7.41065 9.09486,4.04217 15.83179,15.83186 26.77931,21.89509 z"
       width="100%"
       height="100%"
       stroke-width="0"
       id="path1"
       style="fill:url(#linearGradient4);filter:url(#filter584)" /><path
       fill="url(#sw-gradient)"
       d="m 51.008101,6.0493542 c 8.308747,11.4441388 16.774267,18.1851478 23.515337,29.3157288 6.89782,11.13064 12.0712,26.49395 6.42752,35.58659 -5.48691,8.93579 -21.63411,11.44408 -35.116227,12.22797 -13.325361,0.78383 -23.98564,-0.31346 -35.9000778,-2.66512 -11.914434,-2.19472 -25.2397882,-5.64368 -31.3537742,-14.1092 -6.113987,-8.46552 -5.016607,-22.10438 -3.135381,-36.056802 2.038001,-13.952424 5.016606,-27.9048428 13.638892,-39.3489818 8.6222902,-11.2873572 23.045027,-19.9096592 34.332387,-16.1472042 11.287361,3.605676 19.43934,19.7528792 27.591324,31.1970192 z"
       width="100%"
       height="100%"
       style="fill:none;stroke:url(#linearGradient11);stroke-width:2.64583333;stroke-dasharray:none;filter:url(#filter583)"
       stroke-width="0"
       id="path1-1" /><path
       fill="url(#sw-gradient)"
       d="m 514.1375,236.79205 c 5.61287,9.57471 3.1366,23.93683 7.59384,38.62918 4.45719,14.85738 16.01296,29.87982 13.04151,37.80372 -3.1366,7.92395 -20.80036,8.58432 -33.84183,6.60335 -13.04151,-2.14607 -21.29562,-7.09853 -33.34665,-8.58431 -12.05094,-1.32061 -27.8988,0.82546 -37.3085,-5.61278 -9.40969,-6.43817 -12.21608,-21.29554 -6.2731,-31.36556 5.77784,-9.90492 20.13999,-15.02248 31.2005,-23.77181 10.8954,-8.58431 18.32408,-20.96546 29.05447,-24.59723 10.56519,-3.63186 24.26703,1.15554 29.87976,10.89544 z"
       width="100%"
       height="100%"
       style="fill:url(#linearGradient6);filter:url(#filter582)"
       stroke-width="0"
       id="path1-3" /><path
       fill="url(#sw-gradient)"
       d="m 417.38455,113.51383 c 12.98508,5.86994 31.48434,10.31691 32.19589,17.6099 0.8894,7.11514 -16.18689,16.89845 -26.85956,25.79231 -10.67266,8.8939 -14.94174,16.54264 -23.30199,24.54714 -8.53815,7.82665 -20.81172,15.8311 -28.10471,12.09568 -7.1151,-3.73547 -9.07176,-19.21077 -12.45143,-31.12864 -3.37972,-11.73992 -8.0045,-19.74437 -6.93724,-27.03741 1.06726,-7.293 7.8266,-13.69659 15.11959,-20.45593 7.11514,-6.93724 14.58599,-14.23023 22.05688,-14.40813 7.64875,0 15.29749,7.11509 28.28257,12.98508 z"
       width="100%"
       height="100%"
       style="fill:none;stroke-width:2.64583333;stroke-dasharray:none;stroke:url(#linearGradient13);filter:url(#filter581)"
       stroke-width="0"
       id="path1-9" /><path
       fill="url(#sw-gradient)"
       d="m 369.88095,6.9324307 c 8.55284,12.7382603 18.56147,18.1975203 20.38125,25.2946103 1.81974,7.27895 -4.73136,16.55978 -11.46446,22.92888 -6.7331,6.55111 -13.83015,10.37258 -20.38125,10.91852 -6.7331,0.54613 -12.92025,-2.18368 -26.7504,-0.1825 -14.0121,2.00173 -35.48519,8.73483 -41.12644,3.82147 -5.82321,-4.91331 4.18542,-21.29109 11.28246,-34.02935 7.27905,-12.73835 11.82841,-21.65513 18.92546,-34.75738031 7.09705,-13.10220969 16.74173,-30.20788569 25.11261,-28.75205869 8.37089,1.455758 15.28594,21.8370487 24.02077,34.7573087 z"
       width="100%"
       height="100%"
       style="fill:url(#linearGradient8);filter:url(#filter580)"
       stroke-width="0"
       id="path1-8" /><path
       fill="url(#sw-gradient)"
       d="m 301.31309,235.58783 c 5.22735,6.5342 4.68282,17.86014 6.09857,28.42377 1.41574,10.67255 4.79176,20.47385 0.87124,24.93889 -3.92054,4.46504 -15.2465,3.48494 -24.39439,5.33626 -9.03897,1.85136 -15.89987,6.53423 -20.36494,4.90066 -4.57396,-1.63355 -6.75201,-9.69242 -10.67252,-16.55331 -3.8116,-6.96984 -9.47461,-12.85063 -11.10816,-20.47386 -1.63355,-7.62322 0.76233,-17.09783 6.8609,-23.41423 5.9897,-6.31637 15.68211,-9.58347 26.02791,-10.3458 10.45475,-0.87125 21.45402,0.76233 26.68139,7.18762 z"
       width="100%"
       height="100%"
       style="fill:none;stroke-width:2.64583333;stroke-dasharray:none;stroke:url(#linearGradient15);filter:url(#filter579)"
       stroke-width="0"
       id="path1-6" /></g></svg>
