<?xml version="1.0" encoding="UTF-8" standalone="no"?>
<!-- Created with Inkscape (http://www.inkscape.org/) -->

<svg
   width="1920"
   height="1080"
   viewBox="0 0 507.99999 285.75"
   version="1.1"
   id="svg1"
   xml:space="preserve"
   inkscape:export-filename="bitmap.svg"
   inkscape:export-xdpi="96"
   inkscape:export-ydpi="96"
   inkscape:version="1.3.1 (91b66b0783, 2023-11-16)"
   sodipodi:docname="registerbg.svg"
   xmlns:inkscape="http://www.inkscape.org/namespaces/inkscape"
   xmlns:sodipodi="http://sodipodi.sourceforge.net/DTD/sodipodi-0.dtd"
   xmlns:xlink="http://www.w3.org/1999/xlink"
   xmlns="http://www.w3.org/2000/svg"
   xmlns:svg="http://www.w3.org/2000/svg"><sodipodi:namedview
     id="namedview1"
     pagecolor="#ffffff"
     bordercolor="#000000"
     borderopacity="0.25"
     inkscape:showpageshadow="2"
     inkscape:pageopacity="0.0"
     inkscape:pagecheckerboard="0"
     inkscape:deskcolor="#d1d1d1"
     inkscape:document-units="mm"
     inkscape:zoom="0.51213161"
     inkscape:cx="853.29628"
     inkscape:cy="553.56864"
     inkscape:window-width="1920"
     inkscape:window-height="1009"
     inkscape:window-x="-8"
     inkscape:window-y="-8"
     inkscape:window-maximized="1"
     inkscape:current-layer="layer1" /><defs
     id="defs1"><linearGradient
       id="linearGradient7"
       inkscape:collect="always"><stop
         style="stop-color:#00224d;stop-opacity:1;"
         offset="0"
         id="stop7" /><stop
         style="stop-color:#5d0e41;stop-opacity:1;"
         offset="1"
         id="stop8" /></linearGradient><linearGradient
       id="linearGradient5"
       inkscape:collect="always"><stop
         style="stop-color:#00224d;stop-opacity:1;"
         offset="0"
         id="stop5" /><stop
         style="stop-color:#a0153e;stop-opacity:1;"
         offset="1"
         id="stop6" /></linearGradient><linearGradient
       id="linearGradient1"
       inkscape:collect="always"><stop
         style="stop-color:#00224d;stop-opacity:1;"
         offset="0"
         id="stop3" /><stop
         style="stop-color:#a0153e;stop-opacity:1;"
         offset="1"
         id="stop4" /></linearGradient><linearGradient
       id="sw-gradient"
       x1="2.8651224"
       x2="19.561674"
       y1="24.55122"
       y2="3.6021214"
       gradientTransform="matrix(2.0641787,0,0,1.8366878,478.39679,256.37108)"
       gradientUnits="userSpaceOnUse"><stop
         id="stop1"
         stop-color="rgba(248, 117, 55, 1)"
         offset="0"
         style="stop-color:#00224d;stop-opacity:1;"
         data-darkreader-inline-stopcolor="" /><stop
         id="stop2"
         stop-color="rgba(251, 168, 31, 1)"
         offset="1"
         style="stop-color:#a0153e;stop-opacity:1;"
         data-darkreader-inline-stopcolor="" /></linearGradient><linearGradient
       id="sw-gradient-4"
       x1="3.5987584"
       x2="21.501016"
       y1="21.465137"
       y2="3.562879"
       gradientTransform="matrix(1.7161445,0,0,1.371669,313.5572,28.799878)"
       gradientUnits="userSpaceOnUse"><stop
         id="stop1-0"
         stop-color="rgba(248, 117, 55, 1)"
         offset="0"
         style="stop-color:#ff204e;stop-opacity:1;"
         data-darkreader-inline-stopcolor="" /><stop
         id="stop2-6"
         stop-color="rgba(251, 168, 31, 1)"
         offset="1"
         style="stop-color:#5d0e41;stop-opacity:1;"
         data-darkreader-inline-stopcolor="" /></linearGradient><linearGradient
       id="sw-gradient-5"
       x1="-5.5025487"
       x2="12.695168"
       y1="7.7243023"
       y2="-6.3880072"
       gradientTransform="matrix(1.5373332,0,0,1.8163042,211.09595,216.14971)"
       gradientUnits="userSpaceOnUse"><stop
         id="stop1-7"
         stop-color="rgba(248, 117, 55, 1)"
         offset="0"
         style="stop-color:#a0153e;stop-opacity:1;"
         data-darkreader-inline-stopcolor="" /><stop
         id="stop2-66"
         stop-color="rgba(251, 168, 31, 1)"
         offset="1"
         style="stop-color:#00224d;stop-opacity:1;"
         data-darkreader-inline-stopcolor="" /></linearGradient><linearGradient
       id="sw-gradient-9"
       x1="3.2381143"
       x2="21.201006"
       y1="25.290287"
       y2="7.3273955"
       gradientTransform="matrix(2.0323047,0,0,1.5303367,25.573444,67.708846)"
       gradientUnits="userSpaceOnUse"><stop
         id="stop1-1"
         stop-color="rgba(248, 117, 55, 1)"
         offset="0%"
         style="--darkreader-inline-stopcolor: #a93a06;"
         data-darkreader-inline-stopcolor="" /><stop
         id="stop2-0"
         stop-color="rgba(251, 168, 31, 1)"
         offset="100%"
         style="--darkreader-inline-stopcolor: #b97403;"
         data-darkreader-inline-stopcolor="" /></linearGradient><linearGradient
       id="sw-gradient-6"
       x1="4.7744889"
       x2="2.9500248"
       y1="16.233696"
       y2="-4.8635359"
       gradientTransform="matrix(2.1797323,0,0,2.0346578,19.216542,253.58871)"
       gradientUnits="userSpaceOnUse"><stop
         id="stop1-8"
         stop-color="rgba(248, 117, 55, 1)"
         offset="0"
         style="stop-color:#a0153e;stop-opacity:1;"
         data-darkreader-inline-stopcolor="" /><stop
         id="stop2-69"
         stop-color="rgba(251, 168, 31, 1)"
         offset="1"
         style="stop-color:#00224d;stop-opacity:1;"
         data-darkreader-inline-stopcolor="" /></linearGradient><linearGradient
       id="sw-gradient-68"
       x1="4.5862777"
       x2="21.391412"
       y1="22.150741"
       y2="5.3456068"
       gradientTransform="matrix(1.7598939,0,0,1.6728292,499.23533,73.248818)"
       gradientUnits="userSpaceOnUse"><stop
         id="stop1-9"
         stop-color="rgba(248, 117, 55, 1)"
         offset="0"
         style="stop-color:#a0153e;stop-opacity:1;"
         data-darkreader-inline-stopcolor="" /><stop
         id="stop2-9"
         stop-color="rgba(251, 168, 31, 1)"
         offset="1"
         style="stop-color:#00224d;stop-opacity:1;"
         data-darkreader-inline-stopcolor="" /></linearGradient><linearGradient
       inkscape:collect="always"
       xlink:href="#linearGradient1"
       id="linearGradient4"
       x1="471.68823"
       y1="91.944351"
       x2="519.74182"
       y2="49.063931"
       gradientUnits="userSpaceOnUse" /><linearGradient
       inkscape:collect="always"
       xlink:href="#linearGradient5"
       id="linearGradient6"
       x1="-12.098438"
       y1="243.08025"
       x2="52.723675"
       y2="286.99393"
       gradientUnits="userSpaceOnUse" /><linearGradient
       inkscape:collect="always"
       xlink:href="#linearGradient7"
       id="linearGradient8"
       x1="-24.449007"
       y1="27.365795"
       x2="78.157013"
       y2="100.21084"
       gradientUnits="userSpaceOnUse" /></defs><g
     inkscape:label="Layer 1"
     inkscape:groupmode="layer"
     id="layer1"><path
       fill="none"
       d="m 511.69247,217.23405 c 10.70907,8.56733 20.83411,18.10819 28.23309,32.32214 7.39906,14.21394 11.87741,33.10096 4.8678,44.78364 -7.20434,11.48796 -26.286,15.77158 -44.3942,22.39175 -18.10812,6.42551 -35.43742,15.18748 -47.1201,10.31976 -11.87741,-4.8678 -18.10819,-23.56009 -27.84379,-40.11057 -9.73552,-16.7452 -22.97591,-31.54324 -20.8341,-43.61537 1.94716,-12.26678 19.27646,-21.80765 34.0745,-29.59615 14.79804,-7.78844 27.25962,-13.8245 39.13702,-13.04561 11.87734,0.58432 23.17065,7.98316 33.87978,16.55041 z"
       width="100%"
       height="100%"
       stroke-width="1.94711"
       stroke="url(#sw-gradient)"
       id="path1"
       style="stroke:url(#sw-gradient);stroke-width:2.64583333;stroke-dasharray:none" /><path
       fill="none"
       d="m 336.26438,2.8707216 c 10.89329,8.1316174 27.00316,11.2001734 34.36764,20.7126004 7.3645,9.512497 6.29049,25.315474 -2.60824,32.679971 -9.05224,7.517923 -25.77573,6.443929 -38.20334,5.983617 -12.27417,-0.460428 -20.40579,-0.306749 -27.46341,-2.761681 -7.05762,-2.608243 -13.19473,-7.824741 -20.71267,-15.035801 -7.51786,-7.211059 -16.41667,-16.570107 -19.48517,-29.151159 -3.06855,-12.5809844 -0.30676,-28.690791 9.20561,-36.975843 9.66588,-8.438491 25.92911,-9.05223 36.97585,-2.761681 11.04674,6.137054 16.87698,19.178361 27.92373,27.3099766 z"
       width="100%"
       height="100%"
       style="stroke:url(#sw-gradient-4);stroke-width:2.64583333;stroke-dasharray:none"
       stroke-width="1.53427"
       stroke="url(#sw-gradient)"
       id="path1-0" /><path
       fill="none"
       d="m 234.15587,190.75038 c 13.20097,9.19055 34.92404,10.19316 38.09897,16.3759 3.34203,6.18267 -11.86414,17.54554 -21.89019,28.7413 -10.02604,11.36287 -14.87195,22.72567 -24.73088,30.91362 -9.859,8.35505 -24.73095,13.36808 -31.74918,6.68401 -7.18534,-6.85112 -6.34978,-25.56638 -8.68921,-38.26602 -2.33944,-12.69969 -7.85373,-19.21659 -10.69443,-29.40974 -2.84076,-10.19316 -3.17492,-23.72828 3.34197,-33.92144 6.51696,-10.36026 19.88498,-17.37849 29.07553,-12.19836 9.02344,5.01302 13.86935,22.0573 27.23742,31.08073 z"
       width="100%"
       height="100%"
       style="stroke:url(#sw-gradient-5);stroke-width:2.64583333;stroke-dasharray:none"
       stroke-width="1.67101"
       stroke="url(#sw-gradient)"
       id="path1-2" /><path
       fill="none"
       d="m 51.144894,42.137346 c 13.05029,5.99611 32.62574,8.99414 41.79618,19.75181 9.346806,10.93397 7.935936,29.80395 -0.88176,43.383344 -8.81778,13.57933 -25.21877,22.04437 -39.15083,19.04635 -13.75569,-2.9981 -25.04246,-17.45919 -39.15082,-23.10257 -14.1084301,-5.643324 -31.03851,-2.292564 -40.73805,-8.288684 -9.69954,-6.17241 -12.16847,-21.51527 -7.75958,-34.03653 4.23252,-12.5212 15.34286,-22.22074 26.4532599,-28.56952 11.11034,-6.34879 22.5734001,-9.34681 31.3911801,-6.34879 8.81777,2.9981 14.99019,12.16854 28.04042,18.16459 z"
       width="100%"
       height="100%"
       style="stroke:none;stroke-width:2.64583333;stroke-dasharray:none;fill:url(#linearGradient8);fill-opacity:1"
       stroke-width="1.76355"
       stroke="url(#sw-gradient)"
       id="path1-4" /><path
       fill="none"
       d="m 47.857482,223.4737 c 8.84497,3.5801 16.63691,12.21454 16.21577,20.6383 -0.42105,8.42376 -9.05558,16.8476 -14.32046,28.21971 -5.26488,11.37211 -7.16019,25.90309 -14.74159,31.58919 -7.58141,5.89662 -20.848909,2.94827 -33.9057292,-1.47418 -13.0568908,-4.42252 -25.9031708,-10.10854 -28.6409208,-19.58534 -2.73774,-9.47671 4.84367,-22.323 10.10854,-32.64215 5.47549,-10.31915 8.8449803,-18.11116 14.5310703,-22.1124 5.8966305,-4.21191 13.8992507,-4.63313 22.9548297,-5.47548 9.0555,-1.05296 18.95352,-2.73775 27.79849,0.84235 z"
       width="100%"
       height="100%"
       style="stroke:none;stroke-width:2.64583333;stroke-dasharray:none;fill:url(#linearGradient6);fill-opacity:1"
       stroke-width="2.10594"
       stroke="url(#sw-gradient)"
       id="path1-43" /><path
       fill="none"
       d="m 532.86513,35.157818 c 11.32434,7.37799 22.82028,16.81489 21.96238,26.08026 -1.02948,9.43696 -14.24121,18.87393 -21.96238,31.05616 -7.54952,12.182242 -9.4369,27.281402 -16.81489,32.257242 -7.54958,4.97584 -20.58971,0 -35.3457,-3.77476 -14.75598,-3.94641 -31.39934,-6.5201 -35.00251,-15.44228 -3.77476,-8.750662 5.49061,-23.849772 11.15275,-36.718372 5.49061,-12.86854 7.54958,-23.67817 14.06962,-32.08565 6.52009,-8.23588 17.32973,-14.2412 28.48248,-14.4128 10.98116,-0.1712 22.13391,5.49062 33.45825,13.0402 z"
       width="100%"
       height="100%"
       style="stroke:none;stroke-width:2.64583333;stroke-dasharray:none;fill:url(#linearGradient4);fill-opacity:1"
       stroke-width="1.71581"
       stroke="url(#sw-gradient)"
       id="path1-9" /></g></svg>
