<?xml version="1.0" standalone="no"?>
<!DOCTYPE svg PUBLIC "-//W3C//DTD SVG 20010904//EN"
 "http://www.w3.org/TR/2001/REC-SVG-20010904/DTD/svg10.dtd">
<svg version="1.0" xmlns="http://www.w3.org/2000/svg"
 width="200.000000pt" height="200.000000pt" viewBox="0 0 200.000000 200.000000"
 preserveAspectRatio="xMidYMid meet">

<style>
  path {
    fill: #000000;
  }
  @media (prefers-color-scheme: dark) {
    path {
      fill: #ffffff;
    }
  }
</style>

<g transform="translate(0.000000,200.000000) scale(0.100000,-0.100000)"
fill="#000000" stroke="none">
<path d="M659 1787 c-46 -31 -71 -72 -104 -167 l-28 -80 -58 0 c-63 0 -89 -16
-89 -54 0 -31 19 -46 58 -46 31 0 34 -2 27 -22 -32 -104 -35 -130 -35 -348 0
-233 2 -246 42 -266 14 -8 -5 -48 -144 -289 -88 -154 -162 -286 -165 -292 -4
-10 75 -13 375 -13 l379 0 7 48 c3 26 9 91 12 145 l7 97 72 0 72 0 7 -87 c4
-49 9 -114 13 -146 l6 -57 354 0 c280 0 354 3 350 12 -3 7 -77 139 -165 293
-140 243 -159 281 -144 289 40 21 42 33 42 266 0 218 -3 244 -35 348 -7 20 -4
22 27 22 39 0 58 15 58 46 0 38 -26 54 -89 54 l-58 0 -28 80 c-33 95 -58 136
-104 167 -33 23 -39 23 -331 23 -292 0 -298 0 -331 -23z m620 -61 c31 -16 39
-32 87 -165 26 -72 31 -97 23 -107 -9 -11 -84 -14 -399 -14 -315 0 -390 3
-399 14 -8 10 -3 35 23 107 48 132 56 149 85 164 38 21 540 21 580 1z m-669
-455 c79 -34 85 -39 88 -69 l3 -32 -71 0 c-62 0 -74 3 -95 25 -19 18 -25 35
-25 70 0 25 3 45 8 44 4 0 45 -17 92 -38z m860 -6 c0 -35 -6 -52 -25 -70 -21
-22 -33 -25 -95 -25 l-71 0 3 32 c3 30 9 35 88 69 47 21 88 38 93 38 4 1 7
-19 7 -44z m-306 -127 c8 -13 8 -23 0 -35 -10 -16 -31 -18 -169 -21 -162 -3
-185 2 -185 37 0 38 19 42 184 39 139 -3 160 -5 170 -20z m-90 -230 c3 -18 7
-52 8 -75 l4 -43 -68 0 -68 0 0 44 c0 24 3 58 6 75 6 30 8 31 60 31 52 0 53
-1 58 -32z"/>
</g>
</svg>
