<?xml version="1.0" encoding="UTF-8" standalone="no"?>
<!-- Created with Inkscape (http://www.inkscape.org/) -->

<svg
   width="1920mm"
   height="1080mm"
   viewBox="0 0 1920 1080"
   version="1.1"
   id="svg1"
   xml:space="preserve"
   inkscape:version="1.3.1 (91b66b0783, 2023-11-16)"
   sodipodi:docname="loginbg.svg"
   xmlns:inkscape="http://www.inkscape.org/namespaces/inkscape"
   xmlns:sodipodi="http://sodipodi.sourceforge.net/DTD/sodipodi-0.dtd"
   xmlns="http://www.w3.org/2000/svg"
   xmlns:svg="http://www.w3.org/2000/svg"><sodipodi:namedview
     id="namedview1"
     pagecolor="#ffffff"
     bordercolor="#000000"
     borderopacity="0.25"
     inkscape:showpageshadow="2"
     inkscape:pageopacity="0.0"
     inkscape:pagecheckerboard="0"
     inkscape:deskcolor="#d1d1d1"
     inkscape:document-units="mm"
     inkscape:zoom="0.1280329"
     inkscape:cx="3776.373"
     inkscape:cy="1878.4234"
     inkscape:window-width="1920"
     inkscape:window-height="1009"
     inkscape:window-x="-8"
     inkscape:window-y="-8"
     inkscape:window-maximized="1"
     inkscape:current-layer="layer1" /><defs
     id="defs1"><linearGradient
       id="sw-gradient"
       x1="4.78155"
       x2="24.236162"
       y1="20.821244"
       y2="1.3666321"
       gradientTransform="matrix(6.263386,0,0,6.7098558,1818.6062,970.66606)"
       gradientUnits="userSpaceOnUse"><stop
         id="stop1"
         stop-color="rgba(35.176, 11.3, 0, 1)"
         offset="0"
         style="stop-color:#007f9e;stop-opacity:1;"
         data-darkreader-inline-stopcolor="" /><stop
         id="stop2"
         stop-color="rgba(168.764, 31, 251, 1)"
         offset="1"
         style="stop-color:#8b0089;stop-opacity:1;"
         data-darkreader-inline-stopcolor="" /></linearGradient><linearGradient
       id="sw-gradient-8"
       x1="3.1733946"
       x2="19.571687"
       y1="25.110475"
       y2="8.7121826"
       gradientTransform="matrix(4.1434726,-5.7978749,4.8076991,3.4358398,1547.7597,41.935114)"
       gradientUnits="userSpaceOnUse"><stop
         id="stop1-0"
         stop-color="rgba(35.176, 11.3, 0, 1)"
         offset="0"
         style="stop-color:#3f7fff;stop-opacity:1;"
         data-darkreader-inline-stopcolor="" /><stop
         id="stop2-7"
         stop-color="rgba(168.764, 31, 251, 1)"
         offset="1"
         style="stop-color:#64ffe2;stop-opacity:1;"
         data-darkreader-inline-stopcolor="" /></linearGradient><linearGradient
       id="sw-gradient-5"
       x1="2.5691983"
       x2="23.505275"
       y1="22.82167"
       y2="1.8855926"
       gradientTransform="matrix(6.1477342,-1.7804218,2.1217713,7.3264023,1235.3194,617.42468)"
       gradientUnits="userSpaceOnUse"><stop
         id="stop1-1"
         stop-color="rgba(35.176, 11.3, 0, 1)"
         offset="0"
         style="stop-color:#ffc85e;stop-opacity:1;"
         data-darkreader-inline-stopcolor="" /><stop
         id="stop2-2"
         stop-color="rgba(168.764, 31, 251, 1)"
         offset="1"
         style="stop-color:#af00db;stop-opacity:1;"
         data-darkreader-inline-stopcolor="" /></linearGradient></defs><g
     inkscape:label="Layer 1"
     inkscape:groupmode="layer"
     id="layer1"><path
       fill="none"
       d="m 1950.2053,723.0237 c 27.2289,35.007 28.525,94.64864 50.5669,140.02801 21.3925,45.37961 62.8815,76.49695 64.1801,108.26261 0.6371,31.76538 -38.8967,64.17938 -68.7179,95.29668 -29.8211,31.1174 -49.9176,60.9381 -77.7933,77.1451 -27.8757,16.207 -63.532,17.5036 -102.4287,22.0416 -38.8967,5.186 -80.3864,12.3171 -99.1864,-8.4277 -18.8,-21.3933 -15.5587,-71.3106 -30.469,-106.9659 -15.5587,-36.3034 -49.2693,-57.69674 -64.828,-88.81407 -15.5586,-31.11734 -13.6137,-70.66233 3.2416,-103.72438 16.8551,-33.06229 47.9724,-59.64164 82.9794,-90.11066 34.3587,-31.11734 72.6073,-66.12434 117.9867,-78.44166 45.3791,-12.31732 97.889,-1.29615 124.4686,33.71037 z"
       width="100%"
       height="100%"
       stroke-width="6.48277"
       stroke="url(#sw-gradient)"
       id="path1"
       style="stroke:url(#sw-gradient);fill:none;fill-opacity:1" /><path
       fill="none"
       d="m 1494.0046,-88.204823 c 20.2216,-18.250717 46.0254,-36.500447 69.7112,-33.928817 23.6871,2.56968 44.728,25.583204 80.8583,38.64303 36.1318,13.058091 87.3517,16.164448 126.1956,39.936182 38.9941,24.677802 65.6125,70.02108 49.0078,104.416273 -16.2268,33.866461 -76.2042,56.407765 -115.5126,80.160705 -39.3081,23.75306 -58.3236,49.24478 -83.8247,63.72245 -26.029,14.10056 -58.0145,17.56231 -93.5457,19.28895 -34.6253,1.57521 -73.1742,1.94416 -114.8119,-7.87386 -41.7892,-10.72217 -87.5742,-31.47779 -85.6049,-64.36732 1.5912,-32.36084 50.9383,-76.857704 77.9513,-110.193445 27.5429,-32.9599355 32.3759,-54.2317 42.5649,-74.069318 10.1876,-19.835586 25.8818,-37.333607 47.0099,-55.735401 z"
       width="100%"
       height="100%"
       style="stroke:url(#sw-gradient-8)"
       stroke-width="6.48927"
       stroke="url(#sw-gradient)"
       id="path1-2" /><path
       fill="none"
       d="m 1280.1727,413.12545 c 44.3158,19.89932 86.7397,20.70652 113.9767,41.91518 27.0427,20.53725 38.2276,61.67023 45.9506,100.89624 7.0519,39.42012 12.3727,77.88692 -8.4652,101.3796 -19.9725,23.96954 -66.1041,32.96505 -87.5401,76.99836 -21.2417,44.7046 -18.6535,123.97053 -46.1479,164.66648 -27.4944,40.69633 -84.5947,41.95709 -126.9154,16.38808 -42.3207,-25.569 -69.8621,-77.96806 -108.7756,-116.8901 -38.9138,-38.92168 -90.0655,-64.84301 -99.2187,-101.47247 -9.15371,-36.62931 22.63197,-85.11491 36.64898,-137.18356 13.34612,-51.87434 9.40062,-108.19734 30.94282,-149.35192 21.5426,-41.15465 69.915,-67.52957 115.9071,-61.93635 46.1859,6.26425 90.1864,45.16769 133.6367,64.59046 z"
       width="100%"
       height="100%"
       style="stroke:url(#sw-gradient-5)"
       stroke-width="6.98701"
       stroke="url(#sw-gradient)"
       id="path1-5" /></g></svg>
