<?xml version="1.0" encoding="UTF-8" standalone="no"?>
<!-- Created with Inkscape (http://www.inkscape.org/) -->

<svg
   width="1920mm"
   height="1080mm"
   viewBox="0 0 1920 1080"
   version="1.1"
   id="svg1"
   xml:space="preserve"
   sodipodi:docname="registerbg.svg"
   inkscape:version="1.3.1 (91b66b0783, 2023-11-16)"
   xmlns:inkscape="http://www.inkscape.org/namespaces/inkscape"
   xmlns:sodipodi="http://sodipodi.sourceforge.net/DTD/sodipodi-0.dtd"
   xmlns:xlink="http://www.w3.org/1999/xlink"
   xmlns="http://www.w3.org/2000/svg"
   xmlns:svg="http://www.w3.org/2000/svg"><sodipodi:namedview
     id="namedview1"
     pagecolor="#ffffff"
     bordercolor="#000000"
     borderopacity="0.25"
     inkscape:showpageshadow="2"
     inkscape:pageopacity="0.0"
     inkscape:pagecheckerboard="0"
     inkscape:deskcolor="#d1d1d1"
     inkscape:document-units="mm"
     inkscape:zoom="0.12657718"
     inkscape:cx="4056.8135"
     inkscape:cy="2539.9523"
     inkscape:window-width="1920"
     inkscape:window-height="1009"
     inkscape:window-x="-8"
     inkscape:window-y="-8"
     inkscape:window-maximized="1"
     inkscape:current-layer="layer1" /><defs
     id="defs1"><linearGradient
       id="linearGradient6"
       inkscape:collect="always"><stop
         style="stop-color:#e44a05;stop-opacity:1;"
         offset="0"
         id="stop6" /><stop
         style="stop-color:#5e189c;stop-opacity:1;"
         offset="1"
         id="stop7" /></linearGradient><linearGradient
       id="linearGradient4"
       inkscape:collect="always"><stop
         style="stop-color:#d736ff;stop-opacity:1;"
         offset="0"
         id="stop4" /><stop
         style="stop-color:#86d0ff;stop-opacity:1;"
         offset="1"
         id="stop5" /></linearGradient><linearGradient
       id="sw-gradient"
       x1="2.6798563"
       x2="23.278873"
       y1="24.270464"
       y2="3.6714456"
       gradientTransform="matrix(7.2388186,0,0,6.2633086,1412.6344,156.48506)"
       gradientUnits="userSpaceOnUse"><stop
         id="stop1"
         stop-color="rgba(35.176, 11.3, 0, 1)"
         offset="0"
         style="stop-color:#5cd800;stop-opacity:1;"
         data-darkreader-inline-stopcolor="" /><stop
         id="stop2"
         stop-color="rgba(168.764, 31, 251, 1)"
         offset="1"
         style="stop-color:#2200f1;stop-opacity:1;"
         data-darkreader-inline-stopcolor="" /></linearGradient><linearGradient
       id="sw-gradient-9"
       x1="-3.6081426"
       x2="-17.574068"
       y1="37.888599"
       y2="-32.665508"
       gradientTransform="matrix(6.2309352,0,0,8.7797372,1915.4842,564.18125)"
       gradientUnits="userSpaceOnUse"><stop
         id="stop1-3"
         stop-color="rgba(35.176, 11.3, 0, 1)"
         offset="0"
         style="stop-color:#d736ff;stop-opacity:1;"
         data-darkreader-inline-stopcolor="" /><stop
         id="stop2-2"
         stop-color="rgba(168.764, 31, 251, 1)"
         offset="0.69400632"
         style="stop-color:#86d0ff;stop-opacity:1;"
         data-darkreader-inline-stopcolor="" /></linearGradient><linearGradient
       id="sw-gradient-3"
       x1="5.8166008"
       x2="23.371693"
       y1="20.862568"
       y2="3.3074772"
       gradientTransform="matrix(5.4957155,1.9520773,-2.2477823,6.3282189,1099.1783,796.6738)"
       gradientUnits="userSpaceOnUse"><stop
         id="stop1-4"
         stop-color="rgba(248, 117, 55, 1)"
         offset="0"
         style="stop-color:#f48600;stop-opacity:1;" /><stop
         id="stop2-6"
         stop-color="rgba(251, 168, 31, 1)"
         offset="1"
         style="stop-color:#ff4f4f;stop-opacity:1;" /></linearGradient><linearGradient
       id="sw-gradient-1"
       x1="6.1481218"
       x2="0.55451441"
       y1="18.543123"
       y2="-12.030438"
       gradientTransform="matrix(6.3922124,0,0,6.0761437,126.95065,161.26884)"
       gradientUnits="userSpaceOnUse"><stop
         id="stop1-9"
         stop-color="rgba(248, 117, 55, 1)"
         offset="0"
         style="stop-color:#e44a05;stop-opacity:1;" /><stop
         id="stop2-9"
         stop-color="rgba(251, 168, 31, 1)"
         offset="1"
         style="stop-color:#5e189c;stop-opacity:1;" /></linearGradient><linearGradient
       inkscape:collect="always"
       xlink:href="#linearGradient4"
       id="linearGradient5"
       x1="1893.0021"
       y1="896.83319"
       x2="1805.9813"
       y2="277.38666"
       gradientUnits="userSpaceOnUse" /><linearGradient
       inkscape:collect="always"
       xlink:href="#linearGradient6"
       id="linearGradient7"
       x1="166.25075"
       y1="273.93951"
       x2="130.49522"
       y2="88.170166"
       gradientUnits="userSpaceOnUse" /></defs><g
     inkscape:label="Layer 1"
     inkscape:groupmode="layer"
     id="layer1"><path
       fill="none"
       d="m 1490.7415,49.423822 c 47.8072,16.16021 128.6083,-4.04005 174.3956,15.48683 45.7874,19.52687 56.5607,78.781148 30.3003,119.181668 -26.2602,40.40053 -90.2277,62.62069 -130.6282,96.96126 -41.0739,35.0137 -59.2543,82.82095 -91.5747,100.32793 -32.3204,18.18011 -78.7809,6.05995 -130.6282,-2.02066 -52.5207,-8.08011 -110.4282,-12.12016 -130.6285,-43.7672 -19.5269,-32.32042 -0.6744,-92.9212 -11.4468,-150.15532 -10.1002,-57.23438 -49.8274,-111.774958 -47.8072,-160.928968 1.3463,-49.15402 44.4406,-92.92121 94.2677,-108.40803 50.5008,-14.81345 107.7349,-1.34626 144.0954,31.64703 37.0339,32.9938 51.8473,85.51449 99.6546,101.6747 z"
       width="100%"
       height="100%"
       stroke-width="6.73341"
       stroke="url(#sw-gradient)"
       id="path1"
       style="stroke:url(#sw-gradient)" /><path
       fill="none"
       d="m 2041.2222,326.75838 c 28.8465,36.98157 39.2009,86.53717 43.6373,127.95677 4.4392,42.1591 2.9604,75.4428 12.574,114.6434 9.6165,39.2006 29.5873,83.5787 30.3253,135.353 1.4816,51.035 -17.0104,109.4662 -55.4705,144.229 -38.4629,35.5024 -97.6318,47.3365 -144.2295,25.8871 -46.5977,-22.189 -80.6214,-77.6615 -123.5207,-110.2055 -42.8965,-32.544 -94.6714,-42.1593 -104.2878,-71.7446 -8.8756,-29.5853 24.4073,-79.1409 35.5025,-122.7793 11.0952,-42.8991 -0.7268,-79.8806 12.574,-102.8093 12.574,-22.1891 51.0341,-29.5853 83.579,-65.0878 31.804,-35.5025 57.6901,-98.3715 94.6742,-117.6021 36.9813,-19.2306 85.0578,5.17749 114.6422,42.15933 z"
       width="100%"
       height="100%"
       style="stroke:none;fill:url(#linearGradient5)"
       stroke-width="7.39634"
       stroke="url(#sw-gradient)"
       id="path1-5" /><path
       fill="none"
       d="m 1278.1513,683.58493 c 17.888,46.86603 18.1004,96.75165 11.5775,146.90133 -7.1126,49.93993 -20.3707,100.35407 -52.7029,124.06867 -32.5418,24.3043 -84.1578,21.9096 -138.4581,25.2026 -54.091,2.7035 -110.06733,10.7143 -150.60396,-11.654 -40.7458,-21.7785 -66.64207,-74.14546 -58.63686,-119.11962 8.00524,-44.97425 49.32215,-82.76507 80.03994,-115.02281 31.30758,-32.04823 52.81528,-58.9436 87.45178,-89.14544 34.4269,-29.61186 82.5726,-62.32072 124.4272,-56.75166 42.0643,4.97908 78.2181,49.03517 96.9054,95.52093 z"
       width="100%"
       height="100%"
       style="stroke:url(#sw-gradient-3)"
       stroke-width="6.25826"
       stroke="url(#sw-gradient)"
       id="path1-56" /><path
       fill="none"
       d="m 201.73684,74.64164 c 28.66792,21.81257 62.94492,39.26258 76.03261,66.68423 13.08745,27.42141 3.7393,66.06097 -18.0735,90.36657 -21.18932,24.30536 -56.08958,35.52328 -86.62704,39.26258 -30.53769,3.73931 -57.95934,0 -82.264704,-9.34814 -23.68234,-9.34838 -44.87166,-25.55211 -62.3219,-47.36469 C 11.655546,192.42962 -0.80888376,164.38495 -14.519584,117.64353 -28.853544,70.90234 -44.434024,4.8411304 -20.751914,-18.21796 2.3071662,-41.27681 64.629076,-21.33401 107.00771,2.3483404 150.00983,25.40742 172.44566,52.20581 201.73684,74.64164 Z"
       width="100%"
       height="100%"
       style="stroke:none;fill:url(#linearGradient7);fill-opacity:1"
       stroke-width="6.23217"
       stroke="url(#sw-gradient)"
       id="path1-4" /></g></svg>
