<?xml version="1.0" encoding="UTF-8" standalone="no"?>
<!-- Created with Inkscape (http://www.inkscape.org/) -->

<svg
   width="1920mm"
   height="1080mm"
   viewBox="0 0 1920 1080"
   version="1.1"
   id="svg1"
   xml:space="preserve"
   inkscape:version="1.3.1 (91b66b0783, 2023-11-16)"
   sodipodi:docname="loginbg-palette.svg"
   xmlns:inkscape="http://www.inkscape.org/namespaces/inkscape"
   xmlns:sodipodi="http://sodipodi.sourceforge.net/DTD/sodipodi-0.dtd"
   xmlns:xlink="http://www.w3.org/1999/xlink"
   xmlns="http://www.w3.org/2000/svg"
   xmlns:svg="http://www.w3.org/2000/svg"><sodipodi:namedview
     id="namedview1"
     pagecolor="#ffffff"
     bordercolor="#000000"
     borderopacity="0.25"
     inkscape:showpageshadow="2"
     inkscape:pageopacity="0.0"
     inkscape:pagecheckerboard="0"
     inkscape:deskcolor="#d1d1d1"
     inkscape:document-units="mm"
     inkscape:zoom="0.1280329"
     inkscape:cx="3659.2156"
     inkscape:cy="2253.327"
     inkscape:window-width="1920"
     inkscape:window-height="1009"
     inkscape:window-x="-8"
     inkscape:window-y="-8"
     inkscape:window-maximized="1"
     inkscape:current-layer="layer1" /><defs
     id="defs1"><linearGradient
       id="linearGradient5"
       inkscape:collect="always"><stop
         style="stop-color:#a0153e;stop-opacity:1;"
         offset="0"
         id="stop5" /><stop
         style="stop-color:#ff204e;stop-opacity:1;"
         offset="1"
         id="stop6" /></linearGradient><linearGradient
       id="linearGradient1"
       inkscape:collect="always"><stop
         style="stop-color:#5d0e41;stop-opacity:1;"
         offset="0"
         id="stop3" /><stop
         style="stop-color:#ff204e;stop-opacity:1;"
         offset="1"
         id="stop4" /></linearGradient><linearGradient
       id="sw-gradient"
       x1="-27.332115"
       x2="15.869114"
       y1="-19.823448"
       y2="22.374062"
       gradientTransform="matrix(3.9541949,-1.5896202,2.4567189,6.1111109,66.572346,921.40947)"
       gradientUnits="userSpaceOnUse"><stop
         id="stop1"
         stop-color="rgba(248, 117, 55, 1)"
         offset="0"
         style="stop-color:#00224d;stop-opacity:1;" /><stop
         id="stop2"
         stop-color="rgba(251, 168, 31, 1)"
         offset="1"
         style="stop-color:#a0153e;stop-opacity:1;" /></linearGradient><linearGradient
       id="sw-gradient-9"
       x1="2.5223026"
       x2="19.210505"
       y1="23.236414"
       y2="6.548211"
       gradientTransform="matrix(7.3995761,0,0,6.166201,1792.4537,2.893649)"
       gradientUnits="userSpaceOnUse"><stop
         id="stop1-1"
         stop-color="rgba(248, 117, 55, 1)"
         offset="0%" /><stop
         id="stop2-1"
         stop-color="rgba(251, 168, 31, 1)"
         offset="100%" /></linearGradient><linearGradient
       id="sw-gradient-7"
       x1="4.3437248"
       x2="24.809601"
       y1="23.922161"
       y2="3.4562852"
       gradientTransform="matrix(4.2133034,0,0,4.301469,1377.6076,615.42961)"
       gradientUnits="userSpaceOnUse"><stop
         id="stop1-0"
         stop-color="rgba(248, 117, 55, 1)"
         offset="0%" /><stop
         id="stop2-8"
         stop-color="rgba(251, 168, 31, 1)"
         offset="100%" /></linearGradient><linearGradient
       id="sw-gradient-77"
       x1="26.714148"
       x2="-18.799482"
       y1="37.3204"
       y2="-35.957031"
       gradientTransform="matrix(6.505852,0,0,5.3107888,1072.8092,126.28318)"
       gradientUnits="userSpaceOnUse"><stop
         id="stop1-08"
         stop-color="rgba(248, 117, 55, 1)"
         offset="0"
         style="stop-color:#a0153e;stop-opacity:1;" /><stop
         id="stop2-7"
         stop-color="rgba(251, 168, 31, 1)"
         offset="1"
         style="stop-color:#00224d;stop-opacity:1;" /></linearGradient><linearGradient
       inkscape:collect="always"
       xlink:href="#linearGradient1"
       id="linearGradient4"
       x1="1909.6289"
       y1="45.287941"
       x2="1586.9332"
       y2="301.53717"
       gradientUnits="userSpaceOnUse" /><linearGradient
       inkscape:collect="always"
       xlink:href="#linearGradient5"
       id="linearGradient6"
       x1="1178.1249"
       y1="492.86649"
       x2="1663.152"
       y2="840.04285"
       gradientUnits="userSpaceOnUse"
       gradientTransform="translate(-208.71914,-2.0665265)" /><linearGradient
       id="sw-gradient-3"
       x1="2.5223026"
       x2="19.210505"
       y1="23.236414"
       y2="6.548211"
       gradientTransform="matrix(5.9252068,0,0,4.9375823,1749.5458,831.87974)"
       gradientUnits="userSpaceOnUse"><stop
         id="stop1-9"
         stop-color="rgba(248, 117, 55, 1)"
         offset="0"
         style="stop-color:#a0153e;stop-opacity:1;" /><stop
         id="stop2-0"
         stop-color="rgba(251, 168, 31, 1)"
         offset="1"
         style="stop-color:#ff204e;stop-opacity:1;" /></linearGradient></defs><g
     inkscape:label="Layer 1"
     inkscape:groupmode="layer"
     id="layer1"><path
       fill="url(#sw-gradient)"
       d="m 99.636985,755.08427 c 15.080785,16.20698 11.049295,74.35857 26.651095,107.48664 15.60188,33.12826 51.32871,41.03537 64.14903,58.72214 12.13138,17.39288 1.5538,45.05688 -8.21855,83.24645 -9.77213,38.1896 -18.34388,87.8881 -46.44024,111.7453 -28.58788,24.055 -75.813518,23.0545 -106.451668,-0.6027 -30.1465658,-23.8551 -43.016434,-70.0729 -41.995315,-105.8866 0.726225,-35.12384 15.1448922,-60.33503 8.9990812,-86.98617 -6.6374552,-26.45371 -33.5455482,-55.03656 -33.6813512,-76.68073 -0.333539,-22.1355 25.907765,-37.82401 56.37048,-58.63543 30.756764,-21.50092 65.243648,-47.92727 80.618178,-32.4092 z"
       width="100%"
       height="100%"
       stroke-width="0"
       id="path1"
       style="fill:url(#sw-gradient)" /><path
       fill="url(#sw-gradient)"
       d="m 1875.5379,-100.45529 c 32.4231,13.509679 73.6271,26.343829 96.5936,54.713979 22.9662,28.37014 27.0191,72.9518 6.7547,101.32194 -19.5889,28.37015 -64.846,41.20431 -99.9709,62.143961 -35.1251,20.26439 -60.7932,49.31006 -100.6464,68.89892 -39.8535,18.9136 -93.8917,29.04567 -132.3942,9.4568 -38.5022,-19.58886 -62.144,-68.89892 -84.4349,-122.261851 -22.9662,-52.68741 -45.2572,-110.10323 -32.423,-158.73776 12.8342,-48.634529 60.1176,-87.812269 109.4277,-95.918019 49.9855,-7.43024 101.9974,16.21151 140.4996,35.12485 38.5025,18.23808 63.4953,32.42303 96.5938,45.25718 z"
       width="100%"
       height="100%"
       style="fill:none;stroke:url(#linearGradient4);stroke-width:10;stroke-dasharray:none"
       stroke-width="0"
       id="path1-2" /><path
       fill="url(#sw-gradient)"
       d="m 1239.5574,515.4481 c 29.3756,22.56291 68.1156,31.50286 90.6787,56.19448 22.5615,24.69146 29.374,65.13444 7.6621,85.5688 -21.7119,20.43435 -71.5203,21.28584 -104.3005,44.70023 -33.205,23.41424 -48.9572,69.81729 -74.5001,83.01453 -25.543,13.6229 -61.3031,-5.5344 -80.4599,-33.20586 -19.5832,-28.09724 -22.9895,-64.28311 -32.7803,-97.91468 -10.2172,-33.20584 -26.8205,-63.85737 -18.3056,-84.71731 8.9396,-20.8601 43.4222,-31.92877 71.0938,-54.91742 27.6717,-22.98865 48.9572,-57.89729 69.818,-57.47155 20.8591,0.42638 41.2935,36.18587 71.0938,58.74878 z"
       width="100%"
       height="100%"
       style="fill:none;stroke:url(#linearGradient6);stroke-width:10;stroke-dasharray:none"
       stroke-width="0"
       id="path1-4" /><path
       fill="url(#sw-gradient)"
       d="m 1192.7209,-37.126122 c 25.864,17.634085 31.7424,65.246219 51.1394,111.094829 19.3969,45.848623 52.3146,91.109393 37.6209,115.209273 -14.696,24.09987 -77.59,27.03907 -120.5005,32.32918 -42.9106,4.7025 -65.2467,11.1683 -92.286,17.04625 -27.0371,6.46579 -58.7795,11.75613 -82.29093,0.58873 -24.1001,-11.16829 -39.97132,-38.79499 -49.96413,-68.77281 -9.40411,-29.39022 -12.93205,-61.7194 0.57758,-83.468146 13.51858,-21.748738 44.08355,-33.504645 69.36108,-51.726564 25.2754,-18.221925 45.8475,-42.3218038 79.3517,-59.955882 34.093,-18.221925 80.5292,-29.978056 106.9798,-12.343971 z"
       width="100%"
       height="100%"
       style="fill:url(#sw-gradient-77)"
       stroke-width="0"
       id="path1-5" /><path
       fill="url(#sw-gradient)"
       d="m 1816.0766,749.1238 c 25.9628,10.81787 58.9568,21.09481 77.3473,43.8122 18.3901,22.71737 21.6355,58.41611 5.4087,81.13347 -15.6857,22.7174 -51.9254,32.9943 -80.0515,49.7617 -28.1264,16.2267 -48.6802,39.4851 -80.5927,55.1708 -31.9127,15.1451 -75.1838,23.25833 -106.0146,7.5725 -30.8306,-15.6858 -49.7617,-55.1708 -67.6112,-97.9011 -18.3902,-42.18938 -36.2396,-88.16505 -25.9627,-127.10913 10.2769,-38.94408 48.1392,-70.31563 87.6242,-76.80632 40.0259,-5.94975 81.6744,12.98137 112.505,28.12622 30.8309,14.60413 50.8439,25.96271 77.3475,36.23966 z"
       width="100%"
       height="100%"
       style="fill:url(#sw-gradient-3)"
       stroke-width="0"
       id="path1-1" /></g></svg>
